<svg width="637" height="77" viewBox="0 0 637 77" fill="none" xmlns="http://www.w3.org/2000/svg">
<path d="M2.268 17.5H5.712V35H2.268V17.5ZM10.2524 35V21H11.8764L12.8004 22.4C13.491 21.8213 14.247 21.392 15.0684 21.112C15.8897 20.832 16.8044 20.692 17.8124 20.692C19.119 20.692 20.1177 20.916 20.8084 21.364C21.499 21.7933 21.8444 22.428 21.8444 23.268V35H18.4004V23.52H15.7684C14.9844 23.52 14.443 23.6227 14.1444 23.828C13.8457 24.0147 13.6964 24.388 13.6964 24.948V35H10.2524ZM18.4004 35V21L20.9204 22.4C21.611 21.8213 22.367 21.392 23.1884 21.112C24.0097 20.832 24.9244 20.692 25.9324 20.692C27.239 20.692 28.2377 20.916 28.9284 21.364C29.619 21.7933 29.9644 22.428 29.9644 23.268V35H26.5204V23.52H23.8884C23.1044 23.52 22.563 23.6227 22.2644 23.828C21.9657 24.0147 21.8164 24.388 21.8164 24.948V35H18.4004ZM34.3422 35V21H35.9662L36.8902 22.4C37.5809 21.8213 38.3369 21.392 39.1582 21.112C39.9796 20.832 40.8942 20.692 41.9022 20.692C43.2089 20.692 44.2076 20.916 44.8982 21.364C45.5889 21.7933 45.9342 22.428 45.9342 23.268V35H42.4902V23.52H39.8582C39.0742 23.52 38.5329 23.6227 38.2342 23.828C37.9356 24.0147 37.7862 24.388 37.7862 24.948V35H34.3422ZM42.4902 35V21L45.0102 22.4C45.7009 21.8213 46.4569 21.392 47.2782 21.112C48.0996 20.832 49.0142 20.692 50.0222 20.692C51.3289 20.692 52.3276 20.916 53.0182 21.364C53.7089 21.7933 54.0542 22.428 54.0542 23.268V35H50.6102V23.52H47.9782C47.1942 23.52 46.6529 23.6227 46.3542 23.828C46.0556 24.0147 45.9062 24.388 45.9062 24.948V35H42.4902ZM64.0321 35.308C62.8001 35.308 61.7734 35.196 60.9521 34.972C60.1307 34.7293 59.4774 34.3373 58.9921 33.796C58.5067 33.236 58.1614 32.4893 57.9561 31.556C57.7507 30.604 57.6481 29.4187 57.6481 28C57.6481 26.5813 57.7507 25.4053 57.9561 24.472C58.1614 23.52 58.5067 22.7733 58.9921 22.232C59.4774 21.672 60.1307 21.28 60.9521 21.056C61.7734 20.8133 62.8001 20.692 64.0321 20.692C65.2827 20.692 66.3187 20.8133 67.1401 21.056C67.9614 21.28 68.6054 21.672 69.0721 22.232C69.5574 22.7733 69.9027 23.5107 70.1081 24.444C70.3134 25.3773 70.4161 26.5627 70.4161 28C70.4161 29.4187 70.3134 30.604 70.1081 31.556C69.9027 32.4893 69.5574 33.236 69.0721 33.796C68.6054 34.3373 67.9521 34.7293 67.1121 34.972C66.2907 35.196 65.2641 35.308 64.0321 35.308ZM61.2881 32.592H65.5161C66.0201 32.592 66.3561 32.5453 66.5241 32.452C66.7107 32.34 66.8041 32.144 66.8041 31.864V23.408H62.5761C62.0721 23.408 61.7267 23.464 61.5401 23.576C61.3721 23.6693 61.2881 23.856 61.2881 24.136V32.592ZM77.5987 27.58V32.144H85.0467V35H74.1547V17.5H84.9907L84.5707 20.356H77.5987V24.92H83.9827V27.58H77.5987ZM96.5442 35L87.0242 21H90.7482L100.268 35H96.5442ZM86.9122 35L91.9522 27.132L93.9962 29.428L90.5802 35H86.9122ZM95.0602 28.924L93.0722 26.572L96.4882 21H100.156L95.0602 28.924ZM110.196 35.42C109.038 35.42 108.077 35.308 107.312 35.084C106.565 34.86 105.977 34.4773 105.548 33.936C105.137 33.3947 104.838 32.648 104.652 31.696C104.484 30.7253 104.4 29.4933 104.4 28C104.4 26.5067 104.484 25.2933 104.652 24.36C104.838 23.408 105.137 22.6707 105.548 22.148C105.977 21.6067 106.565 21.2333 107.312 21.028C108.077 20.804 109.038 20.692 110.196 20.692C111.222 20.692 112.072 20.8133 112.744 21.056C113.434 21.28 113.976 21.672 114.368 22.232C114.76 22.7733 115.04 23.5107 115.208 24.444C115.376 25.3773 115.46 26.5627 115.46 28C115.46 29.4373 115.376 30.6413 115.208 31.612C115.04 32.564 114.75 33.32 114.34 33.88C113.948 34.4213 113.406 34.8133 112.716 35.056C112.044 35.2987 111.204 35.42 110.196 35.42ZM106.556 32.676H110.56C111.045 32.676 111.372 32.6293 111.54 32.536C111.726 32.4427 111.82 32.256 111.82 31.976V23.408H107.788C107.321 23.408 106.994 23.4547 106.808 23.548C106.64 23.6413 106.556 23.8 106.556 24.024V32.676ZM103.112 39.872V21H104.736L106.556 24.024V39.536L103.112 39.872ZM124.313 35.308C123.212 35.308 122.279 35.1867 121.513 34.944C120.748 34.7013 120.141 34.3093 119.693 33.768C119.245 33.208 118.919 32.4613 118.713 31.528C118.527 30.576 118.433 29.4 118.433 28C118.433 26.1893 118.629 24.752 119.021 23.688C119.413 22.6053 120.067 21.84 120.981 21.392C121.915 20.9253 123.156 20.692 124.705 20.692C126.217 20.692 127.393 20.8227 128.233 21.084C129.073 21.3267 129.661 21.7653 129.997 22.4C130.352 23.016 130.529 23.884 130.529 25.004C130.529 25.956 130.417 26.7307 130.193 27.328C129.969 27.9067 129.559 28.3547 128.961 28.672C128.364 28.9893 127.515 29.2133 126.413 29.344C125.312 29.456 123.865 29.512 122.073 29.512H121.233V27.468H125.153C126.031 27.468 126.628 27.3653 126.945 27.16C127.263 26.936 127.421 26.5253 127.421 25.928V23.38H124.313C123.455 23.38 122.867 23.4827 122.549 23.688C122.232 23.8933 122.073 24.2947 122.073 24.892V32.396C122.447 32.4893 122.848 32.564 123.277 32.62C123.707 32.6573 124.229 32.676 124.845 32.676C125.611 32.676 126.367 32.62 127.113 32.508C127.86 32.396 128.728 32.2187 129.717 31.976L130.165 34.44C129.4 34.72 128.504 34.9347 127.477 35.084C126.469 35.2333 125.415 35.308 124.313 35.308ZM136.209 21L137.329 23.128C138.094 22.4 138.785 21.84 139.401 21.448C140.017 21.056 140.624 20.7667 141.221 20.58L141.529 23.94C141.156 24.0333 140.745 24.1733 140.297 24.36C139.849 24.528 139.42 24.724 139.009 24.948C138.617 25.1533 138.281 25.368 138.001 25.592V35H134.557V21H136.209ZM147.319 35.308C146.498 35.308 145.891 35.1213 145.499 34.748C145.107 34.356 144.911 33.768 144.911 32.984V18.172L148.327 17.304V32.48C148.607 32.5173 148.887 32.5547 149.167 32.592C149.466 32.6107 149.83 32.6293 150.259 32.648L150.063 34.972C149.466 35.084 148.943 35.168 148.495 35.224C148.047 35.28 147.655 35.308 147.319 35.308ZM143.063 23.324V21H150.707V23.324H143.063Z" fill="#1C1C1C"/>
<path d="M5.418 53.148C6.486 53.148 7.38 53.25 8.1 53.454C8.832 53.658 9.378 53.994 9.738 54.462C10.11 54.93 10.296 55.554 10.296 56.334C10.296 56.838 10.2 57.288 10.008 57.684C9.828 58.068 9.552 58.392 9.18 58.656C8.82 58.908 8.376 59.082 7.848 59.178V59.268C8.388 59.352 8.874 59.508 9.306 59.736C9.75 59.964 10.098 60.288 10.35 60.708C10.602 61.128 10.728 61.674 10.728 62.346C10.728 63.126 10.548 63.792 10.188 64.344C9.828 64.884 9.312 65.298 8.64 65.586C7.98 65.862 7.188 66 6.264 66H1.746V53.148H5.418ZM5.742 58.62C6.846 58.62 7.602 58.446 8.01 58.098C8.418 57.738 8.622 57.21 8.622 56.514C8.622 55.806 8.37 55.302 7.866 55.002C7.374 54.69 6.582 54.534 5.49 54.534H3.366V58.62H5.742ZM3.366 59.97V64.632H5.958C7.098 64.632 7.89 64.41 8.334 63.966C8.778 63.522 9 62.94 9 62.22C9 61.764 8.898 61.368 8.694 61.032C8.502 60.696 8.172 60.438 7.704 60.258C7.248 60.066 6.624 59.97 5.832 59.97H3.366ZM16.891 56.19C18.067 56.19 18.937 56.448 19.501 56.964C20.065 57.48 20.347 58.302 20.347 59.43V66H19.195L18.889 64.632H18.817C18.541 64.98 18.253 65.274 17.953 65.514C17.665 65.742 17.329 65.91 16.945 66.018C16.573 66.126 16.117 66.18 15.577 66.18C15.001 66.18 14.479 66.078 14.011 65.874C13.555 65.67 13.195 65.358 12.931 64.938C12.667 64.506 12.535 63.966 12.535 63.318C12.535 62.358 12.913 61.62 13.669 61.104C14.425 60.576 15.589 60.288 17.161 60.24L18.799 60.186V59.61C18.799 58.806 18.625 58.248 18.277 57.936C17.929 57.624 17.437 57.468 16.801 57.468C16.297 57.468 15.817 57.546 15.361 57.702C14.905 57.846 14.479 58.014 14.083 58.206L13.597 57.018C14.017 56.79 14.515 56.598 15.091 56.442C15.667 56.274 16.267 56.19 16.891 56.19ZM17.359 61.338C16.159 61.386 15.325 61.578 14.857 61.914C14.401 62.25 14.173 62.724 14.173 63.336C14.173 63.876 14.335 64.272 14.659 64.524C14.995 64.776 15.421 64.902 15.937 64.902C16.753 64.902 17.431 64.68 17.971 64.236C18.511 63.78 18.781 63.084 18.781 62.148V61.284L17.359 61.338ZM36.4129 56.352V66H23.3269V56.352H24.9109V64.668H29.0689V56.352H30.6529V64.668H34.8289V56.352H36.4129ZM43.1528 56.19C44.3288 56.19 45.1988 56.448 45.7628 56.964C46.3268 57.48 46.6088 58.302 46.6088 59.43V66H45.4568L45.1508 64.632H45.0788C44.8028 64.98 44.5148 65.274 44.2148 65.514C43.9268 65.742 43.5908 65.91 43.2068 66.018C42.8348 66.126 42.3788 66.18 41.8388 66.18C41.2628 66.18 40.7408 66.078 40.2728 65.874C39.8168 65.67 39.4568 65.358 39.1928 64.938C38.9288 64.506 38.7968 63.966 38.7968 63.318C38.7968 62.358 39.1748 61.62 39.9308 61.104C40.6868 60.576 41.8508 60.288 43.4228 60.24L45.0608 60.186V59.61C45.0608 58.806 44.8868 58.248 44.5388 57.936C44.1908 57.624 43.6988 57.468 43.0628 57.468C42.5588 57.468 42.0788 57.546 41.6228 57.702C41.1668 57.846 40.7408 58.014 40.3447 58.206L39.8588 57.018C40.2788 56.79 40.7768 56.598 41.3528 56.442C41.9288 56.274 42.5288 56.19 43.1528 56.19ZM43.6208 61.338C42.4208 61.386 41.5868 61.578 41.1188 61.914C40.6628 62.25 40.4348 62.724 40.4348 63.336C40.4348 63.876 40.5968 64.272 40.9208 64.524C41.2568 64.776 41.6828 64.902 42.1988 64.902C43.0148 64.902 43.6928 64.68 44.2328 64.236C44.7728 63.78 45.0428 63.084 45.0428 62.148V61.284L43.6208 61.338ZM64.2452 56.352V66H62.8232V59.844C62.8232 59.592 62.8292 59.328 62.8412 59.052C62.8652 58.776 62.8892 58.506 62.9132 58.242H62.8592L59.7092 66H58.3772L55.3172 58.242H55.2632C55.2872 58.506 55.2992 58.776 55.2992 59.052C55.3112 59.328 55.3172 59.61 55.3172 59.898V66H53.8952V56.352H56.0012L59.0432 64.11L62.1392 56.352H64.2452ZM71.0509 56.172C71.8789 56.172 72.5869 56.352 73.1749 56.712C73.7749 57.072 74.2309 57.582 74.5429 58.242C74.8669 58.89 75.0289 59.652 75.0289 60.528V61.482H68.4229C68.4469 62.574 68.7229 63.408 69.2509 63.984C69.7909 64.548 70.5409 64.83 71.5009 64.83C72.1129 64.83 72.6529 64.776 73.1209 64.668C73.6009 64.548 74.0929 64.38 74.5969 64.164V65.55C74.1049 65.766 73.6189 65.922 73.1389 66.018C72.6589 66.126 72.0889 66.18 71.4289 66.18C70.5169 66.18 69.7069 65.994 68.9989 65.622C68.3029 65.25 67.7569 64.698 67.3609 63.966C66.9769 63.222 66.7849 62.316 66.7849 61.248C66.7849 60.192 66.9589 59.286 67.3069 58.53C67.6669 57.774 68.1649 57.192 68.8009 56.784C69.4489 56.376 70.1989 56.172 71.0509 56.172ZM71.0329 57.468C70.2769 57.468 69.6769 57.714 69.2329 58.206C68.8009 58.686 68.5429 59.358 68.4589 60.222H73.3729C73.3729 59.67 73.2889 59.19 73.1209 58.782C72.9529 58.374 72.6949 58.056 72.3469 57.828C72.0109 57.588 71.5729 57.468 71.0329 57.468ZM78.8711 59.862C78.8711 60.426 79.0271 60.846 79.3391 61.122C79.6631 61.386 80.1251 61.518 80.7251 61.518C81.3251 61.518 81.8711 61.428 82.3631 61.248C82.8551 61.056 83.3591 60.804 83.8751 60.492V56.352H85.4591V66H83.8751V61.698C83.3351 62.046 82.8011 62.322 82.2731 62.526C81.7571 62.718 81.1331 62.814 80.4011 62.814C79.4171 62.814 78.6491 62.556 78.0971 62.04C77.5571 61.524 77.2871 60.834 77.2871 59.97V56.352H78.8711V59.862ZM95.1841 57.684H92.0341V66H90.4681V57.684H87.3541V56.352H95.1841V57.684ZM100.739 56.19C101.915 56.19 102.785 56.448 103.349 56.964C103.913 57.48 104.195 58.302 104.195 59.43V66H103.043L102.737 64.632H102.665C102.389 64.98 102.101 65.274 101.801 65.514C101.513 65.742 101.177 65.91 100.793 66.018C100.421 66.126 99.9647 66.18 99.4247 66.18C98.8487 66.18 98.3267 66.078 97.8587 65.874C97.4027 65.67 97.0427 65.358 96.7787 64.938C96.5147 64.506 96.3827 63.966 96.3827 63.318C96.3827 62.358 96.7607 61.62 97.5167 61.104C98.2727 60.576 99.4367 60.288 101.009 60.24L102.647 60.186V59.61C102.647 58.806 102.473 58.248 102.125 57.936C101.777 57.624 101.285 57.468 100.649 57.468C100.145 57.468 99.6647 57.546 99.2087 57.702C98.7527 57.846 98.3267 58.014 97.9307 58.206L97.4447 57.018C97.8647 56.79 98.3627 56.598 98.9387 56.442C99.5147 56.274 100.115 56.19 100.739 56.19ZM101.207 61.338C100.007 61.386 99.1727 61.578 98.7047 61.914C98.2487 62.25 98.0207 62.724 98.0207 63.336C98.0207 63.876 98.1827 64.272 98.5067 64.524C98.8427 64.776 99.2687 64.902 99.7847 64.902C100.601 64.902 101.279 64.68 101.819 64.236C102.359 63.78 102.629 63.084 102.629 62.148V61.284L101.207 61.338ZM107.859 68.124L106.869 67.8L107.283 66.054C106.971 65.982 106.755 65.85 106.635 65.658C106.515 65.466 106.455 65.154 106.455 64.722C106.455 64.194 106.557 63.834 106.761 63.642C106.965 63.438 107.325 63.336 107.841 63.336C108.333 63.336 108.675 63.438 108.867 63.642C109.059 63.834 109.155 64.194 109.155 64.722C109.155 64.902 109.137 65.076 109.101 65.244C109.077 65.4 109.029 65.568 108.957 65.748C108.897 65.928 108.801 66.156 108.669 66.432L107.859 68.124ZM117.407 56.352V60.366H122.645V56.352H124.229V66H122.645V61.698H117.407V66H115.823V56.352H117.407ZM130.938 56.19C132.114 56.19 132.984 56.448 133.548 56.964C134.112 57.48 134.394 58.302 134.394 59.43V66H133.242L132.936 64.632H132.864C132.588 64.98 132.3 65.274 132 65.514C131.712 65.742 131.376 65.91 130.992 66.018C130.62 66.126 130.164 66.18 129.624 66.18C129.048 66.18 128.526 66.078 128.058 65.874C127.602 65.67 127.242 65.358 126.978 64.938C126.714 64.506 126.582 63.966 126.582 63.318C126.582 62.358 126.96 61.62 127.716 61.104C128.472 60.576 129.636 60.288 131.208 60.24L132.846 60.186V59.61C132.846 58.806 132.672 58.248 132.324 57.936C131.976 57.624 131.484 57.468 130.848 57.468C130.344 57.468 129.864 57.546 129.408 57.702C128.952 57.846 128.526 58.014 128.13 58.206L127.644 57.018C128.064 56.79 128.562 56.598 129.138 56.442C129.714 56.274 130.314 56.19 130.938 56.19ZM131.406 61.338C130.206 61.386 129.372 61.578 128.904 61.914C128.448 62.25 128.22 62.724 128.22 63.336C128.22 63.876 128.382 64.272 128.706 64.524C129.042 64.776 129.468 64.902 129.984 64.902C130.8 64.902 131.478 64.68 132.018 64.236C132.558 63.78 132.828 63.084 132.828 62.148V61.284L131.406 61.338ZM150.46 56.352V66H137.374V56.352H138.958V64.668H143.116V56.352H144.7V64.668H148.876V56.352H150.46ZM157.2 56.19C158.376 56.19 159.246 56.448 159.81 56.964C160.374 57.48 160.656 58.302 160.656 59.43V66H159.504L159.198 64.632H159.126C158.85 64.98 158.562 65.274 158.262 65.514C157.974 65.742 157.638 65.91 157.254 66.018C156.882 66.126 156.426 66.18 155.886 66.18C155.31 66.18 154.788 66.078 154.32 65.874C153.864 65.67 153.504 65.358 153.24 64.938C152.976 64.506 152.844 63.966 152.844 63.318C152.844 62.358 153.222 61.62 153.978 61.104C154.734 60.576 155.898 60.288 157.47 60.24L159.108 60.186V59.61C159.108 58.806 158.934 58.248 158.586 57.936C158.238 57.624 157.746 57.468 157.11 57.468C156.606 57.468 156.126 57.546 155.67 57.702C155.214 57.846 154.788 58.014 154.392 58.206L153.906 57.018C154.326 56.79 154.824 56.598 155.4 56.442C155.976 56.274 156.576 56.19 157.2 56.19ZM157.668 61.338C156.468 61.386 155.634 61.578 155.166 61.914C154.71 62.25 154.482 62.724 154.482 63.336C154.482 63.876 154.644 64.272 154.968 64.524C155.304 64.776 155.73 64.902 156.246 64.902C157.062 64.902 157.74 64.68 158.28 64.236C158.82 63.78 159.09 63.084 159.09 62.148V61.284L157.668 61.338ZM172.532 56.172C173.72 56.172 174.674 56.586 175.394 57.414C176.126 58.242 176.492 59.49 176.492 61.158C176.492 62.25 176.324 63.174 175.988 63.93C175.664 64.674 175.202 65.238 174.602 65.622C174.014 65.994 173.318 66.18 172.514 66.18C172.022 66.18 171.584 66.114 171.2 65.982C170.816 65.85 170.486 65.682 170.21 65.478C169.946 65.262 169.718 65.028 169.526 64.776H169.418C169.442 64.98 169.466 65.238 169.49 65.55C169.514 65.862 169.526 66.132 169.526 66.36V70.32H167.942V56.352H169.238L169.454 57.666H169.526C169.718 57.39 169.946 57.138 170.21 56.91C170.486 56.682 170.81 56.502 171.182 56.37C171.566 56.238 172.016 56.172 172.532 56.172ZM172.244 57.504C171.596 57.504 171.074 57.63 170.678 57.882C170.282 58.122 169.994 58.488 169.814 58.98C169.634 59.472 169.538 60.096 169.526 60.852V61.158C169.526 61.95 169.61 62.622 169.778 63.174C169.946 63.726 170.228 64.146 170.624 64.434C171.032 64.722 171.584 64.866 172.28 64.866C172.868 64.866 173.348 64.704 173.72 64.38C174.104 64.056 174.386 63.618 174.566 63.066C174.758 62.502 174.854 61.86 174.854 61.14C174.854 60.036 174.638 59.154 174.206 58.494C173.786 57.834 173.132 57.504 172.244 57.504ZM182.742 56.172C183.57 56.172 184.278 56.352 184.866 56.712C185.466 57.072 185.922 57.582 186.234 58.242C186.558 58.89 186.72 59.652 186.72 60.528V61.482H180.114C180.138 62.574 180.414 63.408 180.942 63.984C181.482 64.548 182.232 64.83 183.192 64.83C183.804 64.83 184.344 64.776 184.812 64.668C185.292 64.548 185.784 64.38 186.288 64.164V65.55C185.796 65.766 185.31 65.922 184.83 66.018C184.35 66.126 183.78 66.18 183.12 66.18C182.208 66.18 181.398 65.994 180.69 65.622C179.994 65.25 179.448 64.698 179.052 63.966C178.668 63.222 178.476 62.316 178.476 61.248C178.476 60.192 178.65 59.286 178.998 58.53C179.358 57.774 179.856 57.192 180.492 56.784C181.14 56.376 181.89 56.172 182.742 56.172ZM182.724 57.468C181.968 57.468 181.368 57.714 180.924 58.206C180.492 58.686 180.234 59.358 180.15 60.222H185.064C185.064 59.67 184.98 59.19 184.812 58.782C184.644 58.374 184.386 58.056 184.038 57.828C183.702 57.588 183.264 57.468 182.724 57.468ZM192.83 56.19C194.006 56.19 194.876 56.448 195.44 56.964C196.004 57.48 196.286 58.302 196.286 59.43V66H195.134L194.828 64.632H194.756C194.48 64.98 194.192 65.274 193.892 65.514C193.604 65.742 193.268 65.91 192.884 66.018C192.512 66.126 192.056 66.18 191.516 66.18C190.94 66.18 190.418 66.078 189.95 65.874C189.494 65.67 189.134 65.358 188.87 64.938C188.606 64.506 188.474 63.966 188.474 63.318C188.474 62.358 188.852 61.62 189.608 61.104C190.364 60.576 191.528 60.288 193.1 60.24L194.738 60.186V59.61C194.738 58.806 194.564 58.248 194.216 57.936C193.868 57.624 193.376 57.468 192.74 57.468C192.236 57.468 191.756 57.546 191.3 57.702C190.844 57.846 190.418 58.014 190.022 58.206L189.536 57.018C189.956 56.79 190.454 56.598 191.03 56.442C191.606 56.274 192.206 56.19 192.83 56.19ZM193.298 61.338C192.098 61.386 191.264 61.578 190.796 61.914C190.34 62.25 190.112 62.724 190.112 63.336C190.112 63.876 190.274 64.272 190.598 64.524C190.934 64.776 191.36 64.902 191.876 64.902C192.692 64.902 193.37 64.68 193.91 64.236C194.45 63.78 194.72 63.084 194.72 62.148V61.284L193.298 61.338ZM206.61 66H205.008V57.666H202.164C202.044 59.19 201.894 60.492 201.714 61.572C201.534 62.64 201.306 63.51 201.03 64.182C200.754 64.854 200.424 65.346 200.04 65.658C199.656 65.97 199.206 66.126 198.69 66.126C198.534 66.126 198.378 66.114 198.222 66.09C198.078 66.078 197.958 66.048 197.862 66V64.812C197.934 64.836 198.012 64.854 198.096 64.866C198.18 64.878 198.264 64.884 198.348 64.884C198.612 64.884 198.852 64.776 199.068 64.56C199.284 64.344 199.476 64.014 199.644 63.57C199.824 63.126 199.986 62.568 200.13 61.896C200.274 61.212 200.4 60.408 200.508 59.484C200.616 58.56 200.712 57.516 200.796 56.352H206.61V66ZM214.119 60.312C214.959 60.312 215.655 60.414 216.207 60.618C216.759 60.822 217.173 61.128 217.449 61.536C217.737 61.932 217.881 62.436 217.881 63.048C217.881 63.648 217.743 64.17 217.467 64.614C217.203 65.058 216.789 65.4 216.225 65.64C215.661 65.88 214.935 66 214.047 66H209.673V56.352H211.257V60.312H214.119ZM216.297 63.138C216.297 62.55 216.087 62.154 215.667 61.95C215.259 61.734 214.683 61.626 213.939 61.626H211.257V64.722H213.975C214.647 64.722 215.199 64.602 215.631 64.362C216.075 64.122 216.297 63.714 216.297 63.138ZM221.944 56.352V60.366H227.182V56.352H228.766V66H227.182V61.698H221.944V66H220.36V56.352H221.944ZM240.209 61.158C240.209 61.962 240.101 62.676 239.885 63.3C239.681 63.912 239.381 64.434 238.985 64.866C238.601 65.298 238.127 65.628 237.563 65.856C237.011 66.072 236.393 66.18 235.709 66.18C235.073 66.18 234.485 66.072 233.945 65.856C233.405 65.628 232.937 65.298 232.541 64.866C232.145 64.434 231.833 63.912 231.605 63.3C231.389 62.676 231.281 61.962 231.281 61.158C231.281 60.09 231.461 59.19 231.821 58.458C232.181 57.714 232.697 57.15 233.369 56.766C234.041 56.37 234.839 56.172 235.763 56.172C236.639 56.172 237.407 56.37 238.067 56.766C238.739 57.15 239.261 57.714 239.633 58.458C240.017 59.19 240.209 60.09 240.209 61.158ZM232.919 61.158C232.919 61.914 233.015 62.574 233.207 63.138C233.411 63.69 233.723 64.116 234.143 64.416C234.563 64.716 235.097 64.866 235.745 64.866C236.393 64.866 236.927 64.716 237.347 64.416C237.767 64.116 238.073 63.69 238.265 63.138C238.469 62.574 238.571 61.914 238.571 61.158C238.571 60.39 238.469 59.736 238.265 59.196C238.061 58.656 237.749 58.242 237.329 57.954C236.921 57.654 236.387 57.504 235.727 57.504C234.743 57.504 234.029 57.828 233.585 58.476C233.141 59.124 232.919 60.018 232.919 61.158ZM246.589 66.18C245.737 66.18 244.975 66.006 244.303 65.658C243.643 65.31 243.121 64.77 242.737 64.038C242.365 63.306 242.179 62.37 242.179 61.23C242.179 60.042 242.377 59.076 242.773 58.332C243.169 57.588 243.703 57.042 244.375 56.694C245.059 56.346 245.833 56.172 246.697 56.172C247.189 56.172 247.663 56.226 248.119 56.334C248.575 56.43 248.947 56.55 249.235 56.694L248.749 58.008C248.461 57.9 248.125 57.798 247.741 57.702C247.357 57.606 246.997 57.558 246.661 57.558C246.013 57.558 245.479 57.696 245.059 57.972C244.639 58.248 244.327 58.656 244.123 59.196C243.919 59.736 243.817 60.408 243.817 61.212C243.817 61.98 243.919 62.634 244.123 63.174C244.327 63.714 244.633 64.122 245.041 64.398C245.449 64.674 245.959 64.812 246.571 64.812C247.099 64.812 247.561 64.758 247.957 64.65C248.365 64.542 248.737 64.41 249.073 64.254V65.658C248.749 65.826 248.389 65.952 247.993 66.036C247.609 66.132 247.141 66.18 246.589 66.18ZM258.028 57.684H254.878V66H253.312V57.684H250.198V56.352H258.028V57.684ZM264.374 60.312C265.214 60.312 265.91 60.414 266.462 60.618C267.014 60.822 267.428 61.128 267.704 61.536C267.992 61.932 268.136 62.436 268.136 63.048C268.136 63.648 267.998 64.17 267.722 64.614C267.458 65.058 267.044 65.4 266.48 65.64C265.916 65.88 265.19 66 264.302 66H259.928V56.352H261.512V60.312H264.374ZM266.552 63.138C266.552 62.55 266.342 62.154 265.922 61.95C265.514 61.734 264.938 61.626 264.194 61.626H261.512V64.722H264.23C264.902 64.722 265.454 64.602 265.886 64.362C266.33 64.122 266.552 63.714 266.552 63.138ZM273.951 60.798C273.951 60.498 274.035 60.318 274.203 60.258C274.371 60.186 274.617 60.15 274.941 60.15H279.135V61.302C279.135 61.602 279.051 61.788 278.883 61.86C278.715 61.92 278.469 61.95 278.145 61.95H273.951V60.798ZM287.106 56.352V60.366H292.344V56.352H293.928V66H292.344V61.698H287.106V66H285.522V56.352H287.106ZM300.709 56.172C301.537 56.172 302.245 56.352 302.833 56.712C303.433 57.072 303.889 57.582 304.201 58.242C304.525 58.89 304.687 59.652 304.687 60.528V61.482H298.081C298.105 62.574 298.381 63.408 298.909 63.984C299.449 64.548 300.199 64.83 301.159 64.83C301.771 64.83 302.311 64.776 302.779 64.668C303.259 64.548 303.751 64.38 304.255 64.164V65.55C303.763 65.766 303.277 65.922 302.797 66.018C302.317 66.126 301.747 66.18 301.087 66.18C300.175 66.18 299.365 65.994 298.657 65.622C297.961 65.25 297.415 64.698 297.019 63.966C296.635 63.222 296.443 62.316 296.443 61.248C296.443 60.192 296.617 59.286 296.965 58.53C297.325 57.774 297.823 57.192 298.459 56.784C299.107 56.376 299.857 56.172 300.709 56.172ZM300.691 57.468C299.935 57.468 299.335 57.714 298.891 58.206C298.459 58.686 298.201 59.358 298.117 60.222H303.031C303.031 59.67 302.947 59.19 302.779 58.782C302.611 58.374 302.353 58.056 302.005 57.828C301.669 57.588 301.231 57.468 300.691 57.468ZM314.307 56.352V64.668H315.711V69.348H314.181V66H307.467V69.348H305.955V64.668H306.729C307.281 63.9 307.737 63.066 308.097 62.166C308.469 61.254 308.745 60.306 308.925 59.322C309.117 58.326 309.219 57.336 309.231 56.352H314.307ZM310.635 57.594C310.587 58.41 310.461 59.256 310.257 60.132C310.053 60.996 309.789 61.824 309.465 62.616C309.153 63.408 308.787 64.092 308.367 64.668H312.777V57.594H310.635ZM325.36 58.782C325.36 59.382 325.18 59.85 324.82 60.186C324.46 60.522 323.998 60.75 323.434 60.87V60.942C324.034 61.026 324.556 61.242 325 61.59C325.444 61.926 325.666 62.454 325.666 63.174C325.666 63.582 325.588 63.96 325.432 64.308C325.288 64.656 325.06 64.956 324.748 65.208C324.436 65.46 324.034 65.658 323.542 65.802C323.05 65.934 322.456 66 321.76 66H317.602V56.352H321.742C322.426 56.352 323.038 56.43 323.578 56.586C324.13 56.73 324.562 56.982 324.874 57.342C325.198 57.69 325.36 58.17 325.36 58.782ZM324.028 63.174C324.028 62.622 323.818 62.226 323.398 61.986C322.978 61.746 322.36 61.626 321.544 61.626H319.186V64.722H321.58C322.372 64.722 322.978 64.608 323.398 64.38C323.818 64.14 324.028 63.738 324.028 63.174ZM323.758 58.98C323.758 58.524 323.59 58.194 323.254 57.99C322.93 57.774 322.396 57.666 321.652 57.666H319.186V60.312H321.364C322.144 60.312 322.738 60.204 323.146 59.988C323.554 59.772 323.758 59.436 323.758 58.98ZM329.467 62.238C329.467 62.346 329.461 62.502 329.449 62.706C329.449 62.898 329.443 63.108 329.431 63.336C329.419 63.552 329.407 63.762 329.395 63.966C329.383 64.158 329.371 64.314 329.359 64.434L334.525 56.352H336.469V66H334.993V60.312C334.993 60.12 334.993 59.868 334.993 59.556C335.005 59.244 335.017 58.938 335.029 58.638C335.041 58.326 335.053 58.092 335.065 57.936L329.935 66H327.973V56.352H329.467V62.238ZM351.114 56.352L347.136 61.032L351.456 66H349.656L345.48 61.104V66H344.004V61.104L339.828 66H338.028L342.348 61.032L338.37 56.352H340.098L344.004 61.032V56.352H345.48V61.032L349.404 56.352H351.114ZM354.534 62.238C354.534 62.346 354.528 62.502 354.516 62.706C354.516 62.898 354.51 63.108 354.498 63.336C354.486 63.552 354.474 63.762 354.462 63.966C354.45 64.158 354.438 64.314 354.426 64.434L359.592 56.352H361.536V66H360.06V60.312C360.06 60.12 360.06 59.868 360.06 59.556C360.072 59.244 360.084 58.938 360.096 58.638C360.108 58.326 360.12 58.092 360.132 57.936L355.002 66H353.04V56.352H354.534V62.238ZM374.956 56.352V66H373.534V59.844C373.534 59.592 373.54 59.328 373.552 59.052C373.576 58.776 373.6 58.506 373.624 58.242H373.57L370.42 66H369.088L366.028 58.242H365.974C365.998 58.506 366.01 58.776 366.01 59.052C366.022 59.328 366.028 59.61 366.028 59.898V66H364.606V56.352H366.712L369.754 64.11L372.85 56.352H374.956ZM386.424 61.158C386.424 61.962 386.316 62.676 386.1 63.3C385.896 63.912 385.596 64.434 385.2 64.866C384.816 65.298 384.342 65.628 383.778 65.856C383.226 66.072 382.608 66.18 381.924 66.18C381.288 66.18 380.7 66.072 380.16 65.856C379.62 65.628 379.152 65.298 378.756 64.866C378.36 64.434 378.048 63.912 377.82 63.3C377.604 62.676 377.496 61.962 377.496 61.158C377.496 60.09 377.676 59.19 378.036 58.458C378.396 57.714 378.912 57.15 379.584 56.766C380.256 56.37 381.054 56.172 381.978 56.172C382.854 56.172 383.622 56.37 384.282 56.766C384.954 57.15 385.476 57.714 385.848 58.458C386.232 59.19 386.424 60.09 386.424 61.158ZM379.134 61.158C379.134 61.914 379.23 62.574 379.422 63.138C379.626 63.69 379.938 64.116 380.358 64.416C380.778 64.716 381.312 64.866 381.96 64.866C382.608 64.866 383.142 64.716 383.562 64.416C383.982 64.116 384.288 63.69 384.48 63.138C384.684 62.574 384.786 61.914 384.786 61.158C384.786 60.39 384.684 59.736 384.48 59.196C384.276 58.656 383.964 58.242 383.544 57.954C383.136 57.654 382.602 57.504 381.942 57.504C380.958 57.504 380.244 57.828 379.8 58.476C379.356 59.124 379.134 60.018 379.134 61.158ZM392.804 66.18C391.952 66.18 391.19 66.006 390.518 65.658C389.858 65.31 389.336 64.77 388.952 64.038C388.58 63.306 388.394 62.37 388.394 61.23C388.394 60.042 388.592 59.076 388.988 58.332C389.384 57.588 389.918 57.042 390.59 56.694C391.274 56.346 392.048 56.172 392.912 56.172C393.404 56.172 393.878 56.226 394.334 56.334C394.79 56.43 395.162 56.55 395.45 56.694L394.964 58.008C394.676 57.9 394.34 57.798 393.956 57.702C393.572 57.606 393.212 57.558 392.876 57.558C392.228 57.558 391.694 57.696 391.274 57.972C390.854 58.248 390.542 58.656 390.338 59.196C390.134 59.736 390.032 60.408 390.032 61.212C390.032 61.98 390.134 62.634 390.338 63.174C390.542 63.714 390.848 64.122 391.256 64.398C391.664 64.674 392.174 64.812 392.786 64.812C393.314 64.812 393.776 64.758 394.172 64.65C394.58 64.542 394.952 64.41 395.288 64.254V65.658C394.964 65.826 394.604 65.952 394.208 66.036C393.824 66.132 393.356 66.18 392.804 66.18ZM404.243 57.684H401.093V66H399.527V57.684H396.413V56.352H404.243V57.684ZM410.589 60.312C411.429 60.312 412.125 60.414 412.677 60.618C413.229 60.822 413.643 61.128 413.919 61.536C414.207 61.932 414.351 62.436 414.351 63.048C414.351 63.648 414.213 64.17 413.937 64.614C413.673 65.058 413.259 65.4 412.695 65.64C412.131 65.88 411.405 66 410.517 66H406.143V56.352H407.727V60.312H410.589ZM412.767 63.138C412.767 62.55 412.557 62.154 412.137 61.95C411.729 61.734 411.153 61.626 410.409 61.626H407.727V64.722H410.445C411.117 64.722 411.669 64.602 412.101 64.362C412.545 64.122 412.767 63.714 412.767 63.138ZM425.007 66.18C424.155 66.18 423.393 66.006 422.721 65.658C422.061 65.31 421.539 64.77 421.155 64.038C420.783 63.306 420.597 62.37 420.597 61.23C420.597 60.042 420.795 59.076 421.191 58.332C421.587 57.588 422.121 57.042 422.793 56.694C423.477 56.346 424.251 56.172 425.115 56.172C425.607 56.172 426.081 56.226 426.537 56.334C426.993 56.43 427.365 56.55 427.653 56.694L427.167 58.008C426.879 57.9 426.543 57.798 426.159 57.702C425.775 57.606 425.415 57.558 425.079 57.558C424.431 57.558 423.897 57.696 423.477 57.972C423.057 58.248 422.745 58.656 422.541 59.196C422.337 59.736 422.235 60.408 422.235 61.212C422.235 61.98 422.337 62.634 422.541 63.174C422.745 63.714 423.051 64.122 423.459 64.398C423.867 64.674 424.377 64.812 424.989 64.812C425.517 64.812 425.979 64.758 426.375 64.65C426.783 64.542 427.155 64.41 427.491 64.254V65.658C427.167 65.826 426.807 65.952 426.411 66.036C426.027 66.132 425.559 66.18 425.007 66.18ZM435.587 62.238C435.587 62.346 435.581 62.502 435.569 62.706C435.569 62.898 435.563 63.108 435.551 63.336C435.539 63.552 435.527 63.762 435.515 63.966C435.503 64.158 435.491 64.314 435.479 64.434L440.645 56.352H442.589V66H441.113V60.312C441.113 60.12 441.113 59.868 441.113 59.556C441.125 59.244 441.137 58.938 441.149 58.638C441.161 58.326 441.173 58.092 441.185 57.936L436.055 66H434.093V56.352H435.587V62.238ZM452.823 56.352V64.668H454.227V69.348H452.697V66H445.983V69.348H444.471V64.668H445.245C445.797 63.9 446.253 63.066 446.613 62.166C446.985 61.254 447.261 60.306 447.441 59.322C447.633 58.326 447.735 57.336 447.747 56.352H452.823ZM449.151 57.594C449.103 58.41 448.977 59.256 448.773 60.132C448.569 60.996 448.305 61.824 447.981 62.616C447.669 63.408 447.303 64.092 446.883 64.668H451.293V57.594H449.151ZM459.844 56.172C460.672 56.172 461.38 56.352 461.968 56.712C462.568 57.072 463.024 57.582 463.336 58.242C463.66 58.89 463.822 59.652 463.822 60.528V61.482H457.216C457.24 62.574 457.516 63.408 458.044 63.984C458.584 64.548 459.334 64.83 460.294 64.83C460.906 64.83 461.446 64.776 461.914 64.668C462.394 64.548 462.886 64.38 463.39 64.164V65.55C462.898 65.766 462.412 65.922 461.932 66.018C461.452 66.126 460.882 66.18 460.222 66.18C459.31 66.18 458.5 65.994 457.792 65.622C457.096 65.25 456.55 64.698 456.154 63.966C455.77 63.222 455.578 62.316 455.578 61.248C455.578 60.192 455.752 59.286 456.1 58.53C456.46 57.774 456.958 57.192 457.594 56.784C458.242 56.376 458.992 56.172 459.844 56.172ZM459.826 57.468C459.07 57.468 458.47 57.714 458.026 58.206C457.594 58.686 457.336 59.358 457.252 60.222H462.166C462.166 59.67 462.082 59.19 461.914 58.782C461.746 58.374 461.488 58.056 461.14 57.828C460.804 57.588 460.366 57.468 459.826 57.468ZM469.932 56.19C471.108 56.19 471.978 56.448 472.542 56.964C473.106 57.48 473.388 58.302 473.388 59.43V66H472.236L471.93 64.632H471.858C471.582 64.98 471.294 65.274 470.994 65.514C470.706 65.742 470.37 65.91 469.986 66.018C469.614 66.126 469.158 66.18 468.618 66.18C468.042 66.18 467.52 66.078 467.052 65.874C466.596 65.67 466.236 65.358 465.972 64.938C465.708 64.506 465.576 63.966 465.576 63.318C465.576 62.358 465.954 61.62 466.71 61.104C467.466 60.576 468.63 60.288 470.202 60.24L471.84 60.186V59.61C471.84 58.806 471.666 58.248 471.318 57.936C470.97 57.624 470.478 57.468 469.842 57.468C469.338 57.468 468.858 57.546 468.402 57.702C467.946 57.846 467.52 58.014 467.124 58.206L466.638 57.018C467.058 56.79 467.556 56.598 468.132 56.442C468.708 56.274 469.308 56.19 469.932 56.19ZM470.4 61.338C469.2 61.386 468.366 61.578 467.898 61.914C467.442 62.25 467.214 62.724 467.214 63.336C467.214 63.876 467.376 64.272 467.7 64.524C468.036 64.776 468.462 64.902 468.978 64.902C469.794 64.902 470.472 64.68 471.012 64.236C471.552 63.78 471.822 63.084 471.822 62.148V61.284L470.4 61.338ZM483.712 66H482.11V57.666H479.266C479.146 59.19 478.996 60.492 478.816 61.572C478.636 62.64 478.408 63.51 478.132 64.182C477.856 64.854 477.526 65.346 477.142 65.658C476.758 65.97 476.308 66.126 475.792 66.126C475.636 66.126 475.48 66.114 475.324 66.09C475.18 66.078 475.06 66.048 474.964 66V64.812C475.036 64.836 475.114 64.854 475.198 64.866C475.282 64.878 475.366 64.884 475.45 64.884C475.714 64.884 475.954 64.776 476.17 64.56C476.386 64.344 476.578 64.014 476.746 63.57C476.926 63.126 477.088 62.568 477.232 61.896C477.376 61.212 477.502 60.408 477.61 59.484C477.718 58.56 477.814 57.516 477.898 56.352H483.712V66ZM491.22 60.312C492.06 60.312 492.756 60.414 493.308 60.618C493.86 60.822 494.274 61.128 494.55 61.536C494.838 61.932 494.982 62.436 494.982 63.048C494.982 63.648 494.844 64.17 494.568 64.614C494.304 65.058 493.89 65.4 493.326 65.64C492.762 65.88 492.036 66 491.148 66H486.774V56.352H488.358V60.312H491.22ZM493.398 63.138C493.398 62.55 493.188 62.154 492.768 61.95C492.36 61.734 491.784 61.626 491.04 61.626H488.358V64.722H491.076C491.748 64.722 492.3 64.602 492.732 64.362C493.176 64.122 493.398 63.714 493.398 63.138ZM499.046 56.352V60.366H504.284V56.352H505.868V66H504.284V61.698H499.046V66H497.462V56.352H499.046ZM508.923 66V56.352H510.507V60.312H513.009C513.849 60.312 514.539 60.414 515.079 60.618C515.619 60.822 516.021 61.128 516.285 61.536C516.549 61.932 516.681 62.436 516.681 63.048C516.681 63.648 516.549 64.17 516.285 64.614C516.033 65.058 515.631 65.4 515.079 65.64C514.539 65.88 513.825 66 512.937 66H508.923ZM512.793 64.722C513.477 64.722 514.035 64.608 514.467 64.38C514.899 64.14 515.115 63.726 515.115 63.138C515.115 62.55 514.917 62.154 514.521 61.95C514.125 61.734 513.555 61.626 512.811 61.626H510.507V64.722H512.793ZM518.283 66V56.352H519.867V66H518.283ZM533.282 56.352V66H531.86V59.844C531.86 59.592 531.866 59.328 531.878 59.052C531.902 58.776 531.926 58.506 531.95 58.242H531.896L528.746 66H527.414L524.354 58.242H524.3C524.324 58.506 524.336 58.776 524.336 59.052C524.348 59.328 524.354 59.61 524.354 59.898V66H522.932V56.352H525.038L528.08 64.11L531.176 56.352H533.282ZM548.823 56.352V66H547.239V57.702H542.253V66H540.669V56.352H548.823ZM555.555 56.19C556.731 56.19 557.601 56.448 558.165 56.964C558.729 57.48 559.011 58.302 559.011 59.43V66H557.859L557.553 64.632H557.481C557.205 64.98 556.917 65.274 556.617 65.514C556.329 65.742 555.993 65.91 555.609 66.018C555.237 66.126 554.781 66.18 554.241 66.18C553.665 66.18 553.143 66.078 552.675 65.874C552.219 65.67 551.859 65.358 551.595 64.938C551.331 64.506 551.199 63.966 551.199 63.318C551.199 62.358 551.577 61.62 552.333 61.104C553.089 60.576 554.253 60.288 555.825 60.24L557.463 60.186V59.61C557.463 58.806 557.289 58.248 556.941 57.936C556.593 57.624 556.101 57.468 555.465 57.468C554.961 57.468 554.481 57.546 554.025 57.702C553.569 57.846 553.143 58.014 552.747 58.206L552.261 57.018C552.681 56.79 553.179 56.598 553.755 56.442C554.331 56.274 554.931 56.19 555.555 56.19ZM556.023 61.338C554.823 61.386 553.989 61.578 553.521 61.914C553.065 62.25 552.837 62.724 552.837 63.336C552.837 63.876 552.999 64.272 553.323 64.524C553.659 64.776 554.085 64.902 554.601 64.902C555.417 64.902 556.095 64.68 556.635 64.236C557.175 63.78 557.445 63.084 557.445 62.148V61.284L556.023 61.338ZM566.581 56.172C567.769 56.172 568.723 56.586 569.443 57.414C570.175 58.242 570.541 59.49 570.541 61.158C570.541 62.25 570.373 63.174 570.037 63.93C569.713 64.674 569.251 65.238 568.651 65.622C568.063 65.994 567.367 66.18 566.563 66.18C566.071 66.18 565.633 66.114 565.249 65.982C564.865 65.85 564.535 65.682 564.259 65.478C563.995 65.262 563.767 65.028 563.575 64.776H563.467C563.491 64.98 563.515 65.238 563.539 65.55C563.563 65.862 563.575 66.132 563.575 66.36V70.32H561.991V56.352H563.287L563.503 57.666H563.575C563.767 57.39 563.995 57.138 564.259 56.91C564.535 56.682 564.859 56.502 565.231 56.37C565.615 56.238 566.065 56.172 566.581 56.172ZM566.293 57.504C565.645 57.504 565.123 57.63 564.727 57.882C564.331 58.122 564.043 58.488 563.863 58.98C563.683 59.472 563.587 60.096 563.575 60.852V61.158C563.575 61.95 563.659 62.622 563.827 63.174C563.995 63.726 564.277 64.146 564.673 64.434C565.081 64.722 565.633 64.866 566.329 64.866C566.917 64.866 567.397 64.704 567.769 64.38C568.153 64.056 568.435 63.618 568.615 63.066C568.807 62.502 568.903 61.86 568.903 61.14C568.903 60.036 568.687 59.154 568.255 58.494C567.835 57.834 567.181 57.504 566.293 57.504ZM579.549 57.684H576.399V66H574.833V57.684H571.719V56.352H579.549V57.684ZM583.034 56.352V60.366H588.272V56.352H589.856V66H588.272V61.698H583.034V66H581.45V56.352H583.034ZM596.637 56.172C597.465 56.172 598.173 56.352 598.761 56.712C599.361 57.072 599.817 57.582 600.129 58.242C600.453 58.89 600.615 59.652 600.615 60.528V61.482H594.009C594.033 62.574 594.309 63.408 594.837 63.984C595.377 64.548 596.127 64.83 597.087 64.83C597.699 64.83 598.239 64.776 598.707 64.668C599.187 64.548 599.679 64.38 600.183 64.164V65.55C599.691 65.766 599.205 65.922 598.725 66.018C598.245 66.126 597.675 66.18 597.015 66.18C596.103 66.18 595.293 65.994 594.585 65.622C593.889 65.25 593.343 64.698 592.947 63.966C592.563 63.222 592.371 62.316 592.371 61.248C592.371 60.192 592.545 59.286 592.893 58.53C593.253 57.774 593.751 57.192 594.387 56.784C595.035 56.376 595.785 56.172 596.637 56.172ZM596.619 57.468C595.863 57.468 595.263 57.714 594.819 58.206C594.387 58.686 594.129 59.358 594.045 60.222H598.959C598.959 59.67 598.875 59.19 598.707 58.782C598.539 58.374 598.281 58.056 597.933 57.828C597.597 57.588 597.159 57.468 596.619 57.468ZM607.661 56.172C608.849 56.172 609.803 56.586 610.523 57.414C611.255 58.242 611.621 59.49 611.621 61.158C611.621 62.25 611.453 63.174 611.117 63.93C610.793 64.674 610.331 65.238 609.731 65.622C609.143 65.994 608.447 66.18 607.643 66.18C607.151 66.18 606.713 66.114 606.329 65.982C605.945 65.85 605.615 65.682 605.339 65.478C605.075 65.262 604.847 65.028 604.655 64.776H604.547C604.571 64.98 604.595 65.238 604.619 65.55C604.643 65.862 604.655 66.132 604.655 66.36V70.32H603.071V56.352H604.367L604.583 57.666H604.655C604.847 57.39 605.075 57.138 605.339 56.91C605.615 56.682 605.939 56.502 606.311 56.37C606.695 56.238 607.145 56.172 607.661 56.172ZM607.373 57.504C606.725 57.504 606.203 57.63 605.807 57.882C605.411 58.122 605.123 58.488 604.943 58.98C604.763 59.472 604.667 60.096 604.655 60.852V61.158C604.655 61.95 604.739 62.622 604.907 63.174C605.075 63.726 605.357 64.146 605.753 64.434C606.161 64.722 606.713 64.866 607.409 64.866C607.997 64.866 608.477 64.704 608.849 64.38C609.233 64.056 609.515 63.618 609.695 63.066C609.887 62.502 609.983 61.86 609.983 61.14C609.983 60.036 609.767 59.154 609.335 58.494C608.915 57.834 608.261 57.504 607.373 57.504ZM622.533 61.158C622.533 61.962 622.425 62.676 622.209 63.3C622.005 63.912 621.705 64.434 621.309 64.866C620.925 65.298 620.451 65.628 619.887 65.856C619.335 66.072 618.717 66.18 618.033 66.18C617.397 66.18 616.809 66.072 616.269 65.856C615.729 65.628 615.261 65.298 614.865 64.866C614.469 64.434 614.157 63.912 613.929 63.3C613.713 62.676 613.605 61.962 613.605 61.158C613.605 60.09 613.785 59.19 614.145 58.458C614.505 57.714 615.021 57.15 615.693 56.766C616.365 56.37 617.163 56.172 618.087 56.172C618.963 56.172 619.731 56.37 620.391 56.766C621.063 57.15 621.585 57.714 621.957 58.458C622.341 59.19 622.533 60.09 622.533 61.158ZM615.243 61.158C615.243 61.914 615.339 62.574 615.531 63.138C615.735 63.69 616.047 64.116 616.467 64.416C616.887 64.716 617.421 64.866 618.069 64.866C618.717 64.866 619.251 64.716 619.671 64.416C620.091 64.116 620.397 63.69 620.589 63.138C620.793 62.574 620.895 61.914 620.895 61.158C620.895 60.39 620.793 59.736 620.589 59.196C620.385 58.656 620.073 58.242 619.653 57.954C619.245 57.654 618.711 57.504 618.051 57.504C617.067 57.504 616.353 57.828 615.909 58.476C615.465 59.124 615.243 60.018 615.243 61.158ZM635.394 56.352V66H633.972V59.844C633.972 59.592 633.978 59.328 633.99 59.052C634.014 58.776 634.038 58.506 634.062 58.242H634.008L630.858 66H629.526L626.466 58.242H626.412C626.436 58.506 626.448 58.776 626.448 59.052C626.46 59.328 626.466 59.61 626.466 59.898V66H625.044V56.352H627.15L630.192 64.11L633.288 56.352H635.394Z" fill="#1C1C1C"/>
</svg>
